<svg style="position: absolute; width: 0; height: 0; overflow: hidden;" version="1.1" xmlns="http://www.w3.org/2000/svg">
  <defs>
    <symbol id="icon-arrow-up" viewBox="0 0 26 28">
      <path d="M25.172 15.172c0 0.531-0.219 1.031-0.578 1.406l-1.172 1.172c-0.375 0.375-0.891 0.594-1.422 0.594s-1.047-0.219-1.406-0.594l-4.594-4.578v11c0 1.125-0.938 1.828-2 1.828h-2c-1.062 0-2-0.703-2-1.828v-11l-4.594 4.578c-0.359 0.375-0.875 0.594-1.406 0.594s-1.047-0.219-1.406-0.594l-1.172-1.172c-0.375-0.375-0.594-0.875-0.594-1.406s0.219-1.047 0.594-1.422l10.172-10.172c0.359-0.375 0.875-0.578 1.406-0.578s1.047 0.203 1.422 0.578l10.172 10.172c0.359 0.375 0.578 0.891 0.578 1.422z" />
    </symbol>
    <symbol id="icon-arrow-right" viewBox="0 0 28 26">
      <path d="M13.328,25.172C12.797,25.172 12.297,24.953 11.922,24.594L10.75,23.422C10.375,23.047 10.156,22.531 10.156,22C10.156,21.469 10.375,20.953 10.75,20.594L15.328,16L4.328,16C3.203,16 2.5,15.062 2.5,14L2.5,12C2.5,10.938 3.203,10 4.328,10L15.328,10L10.75,5.406C10.375,5.047 10.156,4.531 10.156,4C10.156,3.469 10.375,2.953 10.75,2.594L11.922,1.422C12.297,1.047 12.797,0.828 13.328,0.828C13.859,0.828 14.375,1.047 14.75,1.422L24.922,11.594C25.297,11.953 25.5,12.469 25.5,13C25.5,13.531 25.297,14.047 24.922,14.422L14.75,24.594C14.375,24.953 13.859,25.172 13.328,25.172Z" />
    </symbol>
    <symbol id="icon-social-github" fill="none" xmlns="http://www.w3.org/2000/svg" viewBox="0 0 16 16">
      <path d="M8 1.2a6.99 6.99 0 00-2.32 13.58c.37.1.32-.17.32-.35v-1.2c-2.13.24-2.21-1.16-2.35-1.4-.3-.49-.97-.61-.77-.85.49-.24.98.07 1.55.9.41.62 1.22.52 1.62.42.1-.37.28-.7.55-.95-2.2-.4-3.12-1.74-3.12-3.33 0-.78.26-1.49.76-2.06-.32-.95.03-1.76.07-1.88.91-.08 1.86.65 1.93.71.51-.14 1.1-.21 1.76-.21.67 0 1.26.08 1.78.22.17-.14 1.05-.77 1.9-.69.04.12.38.91.08 1.84.5.58.76 1.3.76 2.07 0 1.6-.92 2.94-3.12 3.33a2 2 0 01.6 1.42v1.76c0 .14 0 .28.23.28A7 7 0 007.99 1.19z" fill="currentColor"/>
    </symbol>
    <symbol id="icon-social-twitter" fill="none" xmlns="http://www.w3.org/2000/svg" viewBox="0 0 16 16">
      <path d="M14.5 3.97c-.48.21-1 .36-1.53.42.55-.33.97-.86 1.17-1.47-.52.3-1.1.53-1.7.64a2.66 2.66 0 00-4.6 1.82c0 .21.02.42.06.62a7.57 7.57 0 01-5.5-2.8c-.23.41-.36.88-.35 1.35 0 .93.47 1.74 1.18 2.22a2.69 2.69 0 01-1.2-.34v.04c0 1.3.91 2.36 2.13 2.61a2.82 2.82 0 01-1.2.05 2.67 2.67 0 002.49 1.85 5.34 5.34 0 01-3.95 1.1 7.54 7.54 0 004.1 1.2c4.9 0 7.57-4.06 7.57-7.58v-.35c.51-.38.97-.85 1.33-1.38z" fill="currentColor"/>
    </symbol>
  </defs>
</svg>
  