<svg style="position: absolute; width: 0; height: 0; overflow: hidden;" version="1.1" xmlns="http://www.w3.org/2000/svg">
  <defs>
    <symbol id="icon-arrow-up" viewBox="0 0 26 28">
      <path d="M25.172 15.172c0 0.531-0.219 1.031-0.578 1.406l-1.172 1.172c-0.375 0.375-0.891 0.594-1.422 0.594s-1.047-0.219-1.406-0.594l-4.594-4.578v11c0 1.125-0.938 1.828-2 1.828h-2c-1.062 0-2-0.703-2-1.828v-11l-4.594 4.578c-0.359 0.375-0.875 0.594-1.406 0.594s-1.047-0.219-1.406-0.594l-1.172-1.172c-0.375-0.375-0.594-0.875-0.594-1.406s0.219-1.047 0.594-1.422l10.172-10.172c0.359-0.375 0.875-0.578 1.406-0.578s1.047 0.203 1.422 0.578l10.172 10.172c0.359 0.375 0.578 0.891 0.578 1.422z" />
    </symbol>
    <symbol id="icon-arrow-right" viewBox="0 0 28 26">
      <path d="M13.328,25.172C12.797,25.172 12.297,24.953 11.922,24.594L10.75,23.422C10.375,23.047 10.156,22.531 10.156,22C10.156,21.469 10.375,20.953 10.75,20.594L15.328,16L4.328,16C3.203,16 2.5,15.062 2.5,14L2.5,12C2.5,10.938 3.203,10 4.328,10L15.328,10L10.75,5.406C10.375,5.047 10.156,4.531 10.156,4C10.156,3.469 10.375,2.953 10.75,2.594L11.922,1.422C12.297,1.047 12.797,0.828 13.328,0.828C13.859,0.828 14.375,1.047 14.75,1.422L24.922,11.594C25.297,11.953 25.5,12.469 25.5,13C25.5,13.531 25.297,14.047 24.922,14.422L14.75,24.594C14.375,24.953 13.859,25.172 13.328,25.172Z" />
    </symbol>
  </defs>
</svg>
  