<svg viewBox="0 0 512 512" xmlns="http://www.w3.org/2000/svg">
    <path d="M225.165,206.195C242.32,206.195 255.256,210.622 263.972,219.477C272.687,228.331 277.045,242.534 277.045,262.087L277.045,362.25L244.534,362.25L244.534,267.898C244.534,256.277 242.274,247.515 237.755,241.612C233.236,235.709 226.364,232.758 217.141,232.758C204.229,232.758 194.937,236.885 189.264,245.14C183.592,253.394 180.756,265.361 180.756,281.041L180.756,362.25L148.245,362.25L148.245,267.898C148.245,260.15 147.253,253.671 145.27,248.46C143.287,243.249 140.267,239.329 136.209,236.701C132.15,234.072 127.032,232.758 120.852,232.758C111.906,232.758 104.781,234.787 99.478,238.845C94.174,242.903 90.37,248.875 88.064,256.761C85.758,264.647 84.605,274.308 84.605,285.744L84.605,362.25L52.094,362.25L52.094,209.101L77.411,209.101L81.977,229.714L83.775,229.714C86.911,224.365 90.808,219.961 95.466,216.502C100.123,213.043 105.311,210.461 111.03,208.755C116.748,207.048 122.697,206.195 128.876,206.195C140.313,206.195 149.951,208.201 157.791,212.213C165.63,216.225 171.487,222.336 175.361,230.544L177.851,230.544C182.647,222.243 189.334,216.11 197.911,212.144C206.489,208.178 215.573,206.195 225.165,206.195Z" style="fill:rgb(94,17,119);fill-rule:nonzero;"/>
    <path d="M353.518,146.983L353.518,198.863C353.518,204.858 353.356,210.738 353.033,216.502C352.711,222.267 352.411,226.763 352.134,229.991L353.518,229.991C357.668,223.35 363.455,217.747 370.88,213.182C378.305,208.616 387.827,206.334 399.449,206.334C417.618,206.334 432.237,212.997 443.304,226.325C454.372,239.652 459.906,259.366 459.906,285.468C459.906,302.807 457.37,317.38 452.297,329.185C447.224,340.991 440.099,349.914 430.922,355.955C421.745,361.996 410.977,365.017 398.618,365.017C386.997,365.017 377.613,362.873 370.465,358.584C363.317,354.295 357.714,349.292 353.656,343.573L351.304,343.573L345.355,362.25L321.006,362.25L321.006,146.983L353.518,146.983ZM390.871,232.758C381.648,232.758 374.339,234.602 368.943,238.292C363.548,241.981 359.651,247.492 357.253,254.824C354.855,262.156 353.61,271.449 353.518,282.701L353.518,285.606C353.518,302.669 356.215,315.72 361.611,324.758C367.006,333.797 376.852,338.316 391.148,338.316C402.492,338.316 411.208,333.728 417.295,324.551C423.382,315.374 426.426,302.208 426.426,285.053C426.426,267.713 423.406,254.663 417.364,245.901C411.323,237.139 402.492,232.758 390.871,232.758Z" style="fill:rgb(94,17,119);fill-rule:nonzero;"/>
</svg>
