<svg viewBox="0 0 300 100" version="1.1" xmlns="http://www.w3.org/2000/svg" fill="#212529">
  <path d="M49.234,3.102C50.04,4.103 50.452,5.454 51.274,8.156L69.244,67.186C62.6,63.74 55.377,61.254 47.76,59.913L36.06,20.375C35.869,19.728 35.275,19.284 34.6,19.284C33.924,19.284 33.328,19.73 33.138,20.38L21.58,59.893C13.928,61.228 6.672,63.718 0,67.177L18.058,8.142C18.883,5.445 19.295,4.096 20.102,3.097C20.814,2.215 21.74,1.529 22.792,1.107C23.984,0.628 25.394,0.628 28.215,0.628L41.113,0.628C43.937,0.628 45.349,0.628 46.542,1.108C47.595,1.531 48.522,2.218 49.234,3.102Z"/>
  <path d="M51.384,69.995C48.422,72.528 42.509,74.256 35.698,74.256C27.339,74.256 20.333,71.654 18.474,68.154C17.809,70.16 17.66,72.455 17.66,73.922C17.66,73.922 17.222,81.123 22.231,86.131C22.231,83.531 24.339,81.422 26.94,81.422C31.397,81.422 31.392,85.311 31.388,88.466C31.388,88.561 31.388,88.655 31.388,88.748C31.388,93.537 34.315,97.642 38.477,99.372C37.855,98.094 37.507,96.658 37.507,95.14C37.507,90.573 40.188,88.872 43.305,86.896C45.784,85.323 48.539,83.576 50.438,80.071C51.428,78.242 51.991,76.148 51.991,73.922C51.991,72.553 51.778,71.234 51.384,69.995Z"/>
  <path d="M110.499,66.263C118.016,66.263 123.653,63.589 125.965,59.036C125.965,61.204 126.11,63.445 126.471,65.179L138.83,65.179C138.251,62.649 137.962,59.18 137.962,54.627L137.962,43.498C137.962,32.946 131.746,27.96 117.944,27.96C105.874,27.96 97.78,32.946 96.84,41.113L109.704,41.113C110.138,37.572 113.101,35.62 117.944,35.62C122.712,35.62 125.387,37.572 125.387,41.619L125.387,42.703L112.306,43.859C105.946,44.51 102.333,45.594 99.803,47.328C97.129,49.135 95.756,51.881 95.756,55.278C95.756,62.071 101.393,66.263 110.499,66.263ZM115.269,58.747C111.077,58.747 108.548,57.085 108.548,54.411C108.548,51.665 110.643,50.219 115.92,49.569L125.604,48.557L125.604,50.725C125.604,55.567 121.412,58.747 115.269,58.747Z"/>
  <path d="M164.894,66.263C177.47,66.263 183.902,61.566 183.902,53.977C183.902,47.689 180.288,44.22 171.544,43.064L160.631,41.836C157.523,41.402 156.222,40.607 156.222,38.872C156.222,36.777 158.318,35.837 163.088,35.837C169.664,35.837 174.217,37.355 177.904,40.318L183.757,34.464C179.711,30.272 172.7,27.96 164.028,27.96C151.814,27.96 145.02,32.296 145.02,39.595C145.02,45.955 149.212,49.496 157.884,50.652L167.714,51.809C171.616,52.315 172.772,53.038 172.772,54.916C172.772,57.085 170.604,58.241 165.545,58.241C158.029,58.241 152.97,56.217 149.573,52.459L142.925,57.952C147.333,63.445 154.849,66.263 164.894,66.263Z"/>
  <path d="M194.106,37.21L194.106,52.459C194.106,61.421 199.164,65.974 210.005,65.974C213.33,65.974 215.931,65.613 218.389,64.89L218.389,55.495C217.088,55.784 215.498,56.073 213.402,56.073C208.849,56.073 206.608,54.049 206.608,49.785L206.608,37.21L218.461,37.21L218.461,29.044L206.608,29.044L206.608,15.818L194.106,20.443L194.106,29.044L186.011,29.044L186.011,37.21L194.106,37.21Z"/>
  <path d="M236.41,29.044L224.992,29.044L224.992,65.179L237.495,65.179L237.495,51.665C237.495,47.762 238.362,44.22 240.748,41.98C242.626,40.245 245.301,39.306 249.058,39.306C250.431,39.306 251.516,39.45 252.744,39.595L252.744,28.249C251.949,28.104 251.371,28.104 250.359,28.104C243.204,28.104 238.362,32.224 236.41,38.945L236.41,29.044Z"/>
  <path d="M277.451,66.263C290.677,66.263 300,59.253 300,47.039C300,34.898 290.677,27.96 277.451,27.96C264.153,27.96 254.831,34.898 254.831,47.039C254.831,59.253 264.153,66.263 277.451,66.263ZM277.451,57.952C271.381,57.952 267.55,54.049 267.55,47.039C267.55,40.029 271.381,36.271 277.451,36.271C283.45,36.271 287.28,40.029 287.28,47.039C287.28,54.049 283.45,57.952 277.451,57.952Z"/>
</svg>
